<?xml version="1.0" standalone="no"?>
<!DOCTYPE svg PUBLIC "-//W3C//DTD SVG 20010904//EN"
 "http://www.w3.org/TR/2001/REC-SVG-20010904/DTD/svg10.dtd">
<svg version="1.0" xmlns="http://www.w3.org/2000/svg"
 width="180.000000pt" height="180.000000pt" viewBox="0 0 180.000000 180.000000"
 preserveAspectRatio="xMidYMid meet">
<metadata>
Created by potrace 1.11, written by Peter Selinger 2001-2013
</metadata>
<g transform="translate(0.000000,180.000000) scale(0.100000,-0.100000)"
fill="#000000" stroke="none">
<path d="M826 1603 c-2 -3 -19 -7 -38 -9 -18 -3 -40 -7 -48 -10 -8 -3 -26 -8
-39 -10 -37 -7 -146 -59 -198 -95 -190 -131 -311 -364 -307 -589 7 -337 252
-620 594 -685 70 -14 218 -7 270 11 8 3 26 8 39 10 37 7 146 59 198 95 156
108 250 256 299 472 1 4 2 8 4 10 7 8 6 168 -1 173 -5 3 -7 9 -5 13 9 14 -23
129 -54 197 -97 214 -294 366 -530 409 -42 8 -178 13 -184 8z"/>
</g>
</svg>
